<mxfile host="Electron" agent="Mozilla/5.0 (Macintosh; Intel Mac OS X 10_15_7) AppleWebKit/537.36 (KHTML, like Gecko) draw.io/24.7.17 Chrome/128.0.6613.36 Electron/32.0.1 Safari/537.36" version="24.7.17">
  <diagram name="Página-1" id="74xWMy7hqzl4kPnaB3em">
    <mxGraphModel dx="1434" dy="854" grid="1" gridSize="10" guides="1" tooltips="1" connect="1" arrows="1" fold="1" page="1" pageScale="1" pageWidth="827" pageHeight="1169" math="0" shadow="0">
      <root>
        <mxCell id="0" />
        <mxCell id="1" parent="0" />
        <mxCell id="DYd8IbBcMiyC2rXcUr8B-39" value="" style="verticalLabelPosition=bottom;verticalAlign=top;html=1;shape=mxgraph.basic.patternFillRect;fillStyle=diag;step=5;fillStrokeWidth=0.2;fillStrokeColor=#000000;strokeWidth=3;" vertex="1" parent="1">
          <mxGeometry x="310" y="610" width="480" height="260" as="geometry" />
        </mxCell>
        <mxCell id="JjmnFxGDmP4QZC_i7diW-4" value="TikStok" style="text;html=1;align=center;verticalAlign=middle;whiteSpace=wrap;rounded=0;fontSize=20;" parent="1" vertex="1">
          <mxGeometry x="24" y="30" width="90" height="30" as="geometry" />
        </mxCell>
        <mxCell id="JjmnFxGDmP4QZC_i7diW-16" style="edgeStyle=orthogonalEdgeStyle;rounded=0;orthogonalLoop=1;jettySize=auto;html=1;startArrow=classic;startFill=1;endArrow=none;endFill=0;" parent="1" source="JjmnFxGDmP4QZC_i7diW-9" target="JjmnFxGDmP4QZC_i7diW-13" edge="1">
          <mxGeometry relative="1" as="geometry" />
        </mxCell>
        <mxCell id="JjmnFxGDmP4QZC_i7diW-9" value="Produtos" style="html=1;whiteSpace=wrap;" parent="1" vertex="1">
          <mxGeometry x="541" y="50" width="110" height="50" as="geometry" />
        </mxCell>
        <mxCell id="JjmnFxGDmP4QZC_i7diW-13" value="" style="html=1;points=[[0,0,0,0,5],[0,1,0,0,-5],[1,0,0,0,5],[1,1,0,0,-5]];perimeter=orthogonalPerimeter;outlineConnect=0;targetShapes=umlLifeline;portConstraint=eastwest;newEdgeStyle={&quot;curved&quot;:0,&quot;rounded&quot;:0};" parent="1" vertex="1">
          <mxGeometry x="501" y="160" width="10" height="80" as="geometry" />
        </mxCell>
        <mxCell id="JjmnFxGDmP4QZC_i7diW-14" value="dispatch" style="html=1;verticalAlign=bottom;endArrow=block;curved=0;rounded=0;entryX=0;entryY=0;entryDx=0;entryDy=5;" parent="1" target="JjmnFxGDmP4QZC_i7diW-13" edge="1">
          <mxGeometry relative="1" as="geometry">
            <mxPoint x="411" y="165" as="sourcePoint" />
          </mxGeometry>
        </mxCell>
        <mxCell id="JjmnFxGDmP4QZC_i7diW-15" value="return" style="html=1;verticalAlign=bottom;endArrow=open;dashed=1;endSize=8;curved=0;rounded=0;exitX=0;exitY=1;exitDx=0;exitDy=-5;" parent="1" source="JjmnFxGDmP4QZC_i7diW-13" edge="1">
          <mxGeometry relative="1" as="geometry">
            <mxPoint x="411" y="235" as="targetPoint" />
          </mxGeometry>
        </mxCell>
        <mxCell id="JjmnFxGDmP4QZC_i7diW-17" value="[GET] /produtos&lt;div&gt;[GET] /produtos/{idproduto}&lt;/div&gt;&lt;div&gt;[POST] /produtos&lt;/div&gt;&lt;div&gt;[PUT] /produtos/{idproduto}&lt;/div&gt;&lt;div&gt;[DELETE] /produtos/{idproduto}&lt;/div&gt;" style="rounded=1;whiteSpace=wrap;html=1;absoluteArcSize=1;arcSize=14;strokeWidth=2;" parent="1" vertex="1">
          <mxGeometry x="194" y="80" width="216" height="100" as="geometry" />
        </mxCell>
        <mxCell id="JjmnFxGDmP4QZC_i7diW-18" value="[JSON] registro&lt;div&gt;ou&lt;/div&gt;&lt;div&gt;[JSON] erro&lt;/div&gt;" style="rounded=1;whiteSpace=wrap;html=1;absoluteArcSize=1;arcSize=14;strokeWidth=2;" parent="1" vertex="1">
          <mxGeometry x="293" y="220" width="116" height="70" as="geometry" />
        </mxCell>
        <mxCell id="JjmnFxGDmP4QZC_i7diW-19" style="edgeStyle=orthogonalEdgeStyle;rounded=0;orthogonalLoop=1;jettySize=auto;html=1;endArrow=none;endFill=0;startArrow=classic;startFill=0;exitX=0;exitY=0.5;exitDx=0;exitDy=0;" parent="1" source="JjmnFxGDmP4QZC_i7diW-20" target="JjmnFxGDmP4QZC_i7diW-21" edge="1">
          <mxGeometry relative="1" as="geometry">
            <mxPoint x="575" y="500" as="sourcePoint" />
          </mxGeometry>
        </mxCell>
        <mxCell id="JjmnFxGDmP4QZC_i7diW-20" value="Estoques" style="html=1;whiteSpace=wrap;" parent="1" vertex="1">
          <mxGeometry x="543" y="475" width="110" height="50" as="geometry" />
        </mxCell>
        <mxCell id="JjmnFxGDmP4QZC_i7diW-39" style="edgeStyle=orthogonalEdgeStyle;rounded=0;orthogonalLoop=1;jettySize=auto;html=1;curved=0;entryX=0.813;entryY=-0.03;entryDx=0;entryDy=0;entryPerimeter=0;" parent="1" target="JjmnFxGDmP4QZC_i7diW-37" edge="1">
          <mxGeometry relative="1" as="geometry">
            <Array as="points">
              <mxPoint x="512" y="520" />
            </Array>
            <mxPoint x="490" y="520" as="sourcePoint" />
            <mxPoint x="512" y="618" as="targetPoint" />
          </mxGeometry>
        </mxCell>
        <mxCell id="JjmnFxGDmP4QZC_i7diW-21" value="" style="html=1;points=[[0,0,0,0,5],[0,1,0,0,-5],[1,0,0,0,5],[1,1,0,0,-5]];perimeter=orthogonalPerimeter;outlineConnect=0;targetShapes=umlLifeline;portConstraint=eastwest;newEdgeStyle={&quot;curved&quot;:0,&quot;rounded&quot;:0};" parent="1" vertex="1">
          <mxGeometry x="479" y="460" width="10" height="80" as="geometry" />
        </mxCell>
        <mxCell id="JjmnFxGDmP4QZC_i7diW-22" value="dispatch" style="html=1;verticalAlign=bottom;endArrow=block;curved=0;rounded=0;entryX=0;entryY=0;entryDx=0;entryDy=5;" parent="1" target="JjmnFxGDmP4QZC_i7diW-21" edge="1">
          <mxGeometry relative="1" as="geometry">
            <mxPoint x="389" y="465" as="sourcePoint" />
          </mxGeometry>
        </mxCell>
        <mxCell id="JjmnFxGDmP4QZC_i7diW-23" value="return" style="html=1;verticalAlign=bottom;endArrow=open;dashed=1;endSize=8;curved=0;rounded=0;exitX=0;exitY=1;exitDx=0;exitDy=-5;" parent="1" source="JjmnFxGDmP4QZC_i7diW-21" edge="1">
          <mxGeometry relative="1" as="geometry">
            <mxPoint x="389" y="535" as="targetPoint" />
          </mxGeometry>
        </mxCell>
        <mxCell id="JjmnFxGDmP4QZC_i7diW-24" value="[GET] /estoques&lt;div&gt;[GET] /estoques/{idestoque}&lt;/div&gt;&lt;div&gt;[POST] /estoques&lt;/div&gt;&lt;div&gt;[PUT] /estoques/{idestoque}&lt;/div&gt;&lt;div&gt;[DELETE] /estoques/{idestoque}&lt;/div&gt;" style="rounded=1;whiteSpace=wrap;html=1;absoluteArcSize=1;arcSize=14;strokeWidth=2;" parent="1" vertex="1">
          <mxGeometry x="194" y="380" width="196" height="100" as="geometry" />
        </mxCell>
        <mxCell id="JjmnFxGDmP4QZC_i7diW-25" value="[JSON] registro&lt;div&gt;ou&lt;/div&gt;&lt;div&gt;[JSON] erro&lt;/div&gt;" style="rounded=1;whiteSpace=wrap;html=1;absoluteArcSize=1;arcSize=14;strokeWidth=2;" parent="1" vertex="1">
          <mxGeometry x="266" y="520" width="124" height="70" as="geometry" />
        </mxCell>
        <mxCell id="JjmnFxGDmP4QZC_i7diW-27" style="edgeStyle=orthogonalEdgeStyle;rounded=0;orthogonalLoop=1;jettySize=auto;html=1;entryX=0;entryY=0.5;entryDx=0;entryDy=0;" parent="1" source="JjmnFxGDmP4QZC_i7diW-26" target="JjmnFxGDmP4QZC_i7diW-17" edge="1">
          <mxGeometry relative="1" as="geometry" />
        </mxCell>
        <mxCell id="JjmnFxGDmP4QZC_i7diW-29" style="edgeStyle=orthogonalEdgeStyle;rounded=0;orthogonalLoop=1;jettySize=auto;html=1;entryX=0;entryY=0.5;entryDx=0;entryDy=0;" parent="1" source="JjmnFxGDmP4QZC_i7diW-26" target="JjmnFxGDmP4QZC_i7diW-24" edge="1">
          <mxGeometry relative="1" as="geometry" />
        </mxCell>
        <mxCell id="DYd8IbBcMiyC2rXcUr8B-5" style="edgeStyle=orthogonalEdgeStyle;rounded=0;orthogonalLoop=1;jettySize=auto;html=1;entryX=0;entryY=0.5;entryDx=0;entryDy=0;exitX=0.5;exitY=0.5;exitDx=0;exitDy=0;exitPerimeter=0;" edge="1" parent="1" source="JjmnFxGDmP4QZC_i7diW-26" target="JjmnFxGDmP4QZC_i7diW-43">
          <mxGeometry relative="1" as="geometry">
            <mxPoint x="-19.999999999999986" y="130" as="sourcePoint" />
            <mxPoint x="140.01" y="942" as="targetPoint" />
            <Array as="points">
              <mxPoint x="130" y="130" />
              <mxPoint x="130" y="951" />
            </Array>
          </mxGeometry>
        </mxCell>
        <mxCell id="JjmnFxGDmP4QZC_i7diW-26" value="Usuário" style="shape=umlActor;verticalLabelPosition=bottom;verticalAlign=top;html=1;" parent="1" vertex="1">
          <mxGeometry x="54" y="100" width="30" height="60" as="geometry" />
        </mxCell>
        <mxCell id="JjmnFxGDmP4QZC_i7diW-32" style="edgeStyle=orthogonalEdgeStyle;rounded=0;orthogonalLoop=1;jettySize=auto;html=1;startArrow=classic;startFill=1;endArrow=none;endFill=0;" parent="1" source="JjmnFxGDmP4QZC_i7diW-33" target="JjmnFxGDmP4QZC_i7diW-34" edge="1">
          <mxGeometry relative="1" as="geometry" />
        </mxCell>
        <mxCell id="JjmnFxGDmP4QZC_i7diW-45" style="edgeStyle=orthogonalEdgeStyle;rounded=0;orthogonalLoop=1;jettySize=auto;html=1;endArrow=none;endFill=0;exitX=1;exitY=0.5;exitDx=0;exitDy=0;startArrow=classic;startFill=1;" parent="1" source="JjmnFxGDmP4QZC_i7diW-33" edge="1">
          <mxGeometry relative="1" as="geometry">
            <mxPoint x="762.1599999999999" y="656.04" as="sourcePoint" />
            <mxPoint x="610" y="1026" as="targetPoint" />
            <Array as="points">
              <mxPoint x="820" y="652" />
              <mxPoint x="820" y="1026" />
            </Array>
          </mxGeometry>
        </mxCell>
        <mxCell id="JjmnFxGDmP4QZC_i7diW-33" value="Saldos" style="html=1;whiteSpace=wrap;" parent="1" vertex="1">
          <mxGeometry x="653" y="627" width="110" height="50" as="geometry" />
        </mxCell>
        <mxCell id="JjmnFxGDmP4QZC_i7diW-34" value="" style="html=1;points=[[0,0,0,0,5],[0,1,0,0,-5],[1,0,0,0,5],[1,1,0,0,-5]];perimeter=orthogonalPerimeter;outlineConnect=0;targetShapes=umlLifeline;portConstraint=eastwest;newEdgeStyle={&quot;curved&quot;:0,&quot;rounded&quot;:0};" parent="1" vertex="1">
          <mxGeometry x="644" y="719" width="10" height="80" as="geometry" />
        </mxCell>
        <mxCell id="JjmnFxGDmP4QZC_i7diW-35" value="dispatch" style="html=1;verticalAlign=bottom;endArrow=block;curved=0;rounded=0;entryX=0;entryY=0;entryDx=0;entryDy=5;" parent="1" target="JjmnFxGDmP4QZC_i7diW-34" edge="1">
          <mxGeometry relative="1" as="geometry">
            <mxPoint x="554" y="724" as="sourcePoint" />
          </mxGeometry>
        </mxCell>
        <mxCell id="JjmnFxGDmP4QZC_i7diW-36" value="return" style="html=1;verticalAlign=bottom;endArrow=open;dashed=1;endSize=8;curved=0;rounded=0;exitX=0;exitY=1;exitDx=0;exitDy=-5;" parent="1" source="JjmnFxGDmP4QZC_i7diW-34" edge="1">
          <mxGeometry relative="1" as="geometry">
            <mxPoint x="554" y="794" as="targetPoint" />
          </mxGeometry>
        </mxCell>
        <mxCell id="JjmnFxGDmP4QZC_i7diW-37" value="[GET] /saldos/{idproduto}/{data}&lt;div&gt;[POST] /saldos&lt;br&gt;&lt;div&gt;&lt;span style=&quot;background-color: initial;&quot;&gt;[PUT] /saldos/&lt;/span&gt;&lt;span style=&quot;background-color: initial;&quot;&gt;{idproduto}/{data}&lt;/span&gt;&lt;/div&gt;&lt;div&gt;&lt;span style=&quot;background-color: initial;&quot;&gt;[DELETE] /saldos/&lt;/span&gt;&lt;span style=&quot;background-color: initial;&quot;&gt;{idproduto}/{data}&lt;/span&gt;&lt;br&gt;&lt;/div&gt;&lt;/div&gt;" style="rounded=1;whiteSpace=wrap;html=1;absoluteArcSize=1;arcSize=14;strokeWidth=2;" parent="1" vertex="1">
          <mxGeometry x="330" y="639" width="224" height="100" as="geometry" />
        </mxCell>
        <mxCell id="JjmnFxGDmP4QZC_i7diW-38" value="[JSON] ok&lt;div&gt;ou&lt;/div&gt;&lt;div&gt;[JSON] erro&lt;/div&gt;" style="rounded=1;whiteSpace=wrap;html=1;absoluteArcSize=1;arcSize=14;strokeWidth=2;" parent="1" vertex="1">
          <mxGeometry x="450" y="779" width="104" height="70" as="geometry" />
        </mxCell>
        <mxCell id="JjmnFxGDmP4QZC_i7diW-40" value="" style="html=1;points=[[0,0,0,0,5],[0,1,0,0,-5],[1,0,0,0,5],[1,1,0,0,-5]];perimeter=orthogonalPerimeter;outlineConnect=0;targetShapes=umlLifeline;portConstraint=eastwest;newEdgeStyle={&quot;curved&quot;:0,&quot;rounded&quot;:0};" parent="1" vertex="1">
          <mxGeometry x="598" y="991" width="12" height="80" as="geometry" />
        </mxCell>
        <mxCell id="JjmnFxGDmP4QZC_i7diW-41" value="dispatch" style="html=1;verticalAlign=bottom;endArrow=block;curved=0;rounded=0;entryX=0;entryY=0;entryDx=0;entryDy=5;" parent="1" target="JjmnFxGDmP4QZC_i7diW-40" edge="1">
          <mxGeometry relative="1" as="geometry">
            <mxPoint x="508" y="996" as="sourcePoint" />
          </mxGeometry>
        </mxCell>
        <mxCell id="JjmnFxGDmP4QZC_i7diW-42" value="return" style="html=1;verticalAlign=bottom;endArrow=open;dashed=1;endSize=8;curved=0;rounded=0;exitX=0;exitY=1;exitDx=0;exitDy=-5;" parent="1" source="JjmnFxGDmP4QZC_i7diW-40" edge="1">
          <mxGeometry relative="1" as="geometry">
            <mxPoint x="508" y="1066" as="targetPoint" />
          </mxGeometry>
        </mxCell>
        <mxCell id="JjmnFxGDmP4QZC_i7diW-43" value="[GET] /extrato/{idproduto}/{inicial}/{final}&lt;div&gt;[GET] /balanco/{idproduto}/{inicial}/{final}&lt;br&gt;&lt;div&gt;&lt;span style=&quot;background-color: initial;&quot;&gt;[GET] /precos&lt;/span&gt;&lt;span style=&quot;background-color: initial;&quot;&gt;/{idproduto}/{inicial}/{final}&lt;/span&gt;&lt;/div&gt;&lt;/div&gt;&lt;div&gt;[GET] /balanco-lista&lt;span style=&quot;background-color: initial;&quot;&gt;/{inicial}/{final}&lt;/span&gt;&lt;/div&gt;&lt;div&gt;[GET] /precos-lista&lt;span style=&quot;background-color: initial;&quot;&gt;/{inicial}/{final}&lt;/span&gt;&lt;span style=&quot;background-color: initial;&quot;&gt;&lt;br&gt;&lt;/span&gt;&lt;/div&gt;&lt;div&gt;[GET] /reprocesso&lt;span style=&quot;background-color: initial;&quot;&gt;/{idproduto}/{inicial}/{final}&lt;/span&gt;&lt;/div&gt;" style="rounded=1;whiteSpace=wrap;html=1;absoluteArcSize=1;arcSize=14;strokeWidth=2;" parent="1" vertex="1">
          <mxGeometry x="230" y="891" width="278" height="120" as="geometry" />
        </mxCell>
        <mxCell id="JjmnFxGDmP4QZC_i7diW-44" value="[JSON] lista&lt;div&gt;ou&lt;/div&gt;&lt;div&gt;[JSON] erro&lt;/div&gt;" style="rounded=1;whiteSpace=wrap;html=1;absoluteArcSize=1;arcSize=14;strokeWidth=2;" parent="1" vertex="1">
          <mxGeometry x="400" y="1051" width="108" height="70" as="geometry" />
        </mxCell>
        <mxCell id="DYd8IbBcMiyC2rXcUr8B-1" value="PostgreSQL" style="shape=cylinder3;whiteSpace=wrap;html=1;boundedLbl=1;backgroundOutline=1;size=15;" vertex="1" parent="1">
          <mxGeometry x="667.5" y="335" width="81" height="80" as="geometry" />
        </mxCell>
        <mxCell id="DYd8IbBcMiyC2rXcUr8B-2" style="edgeStyle=orthogonalEdgeStyle;rounded=0;orthogonalLoop=1;jettySize=auto;html=1;entryX=0.5;entryY=0;entryDx=0;entryDy=0;entryPerimeter=0;" edge="1" parent="1" source="JjmnFxGDmP4QZC_i7diW-9" target="DYd8IbBcMiyC2rXcUr8B-1">
          <mxGeometry relative="1" as="geometry" />
        </mxCell>
        <mxCell id="DYd8IbBcMiyC2rXcUr8B-3" style="edgeStyle=orthogonalEdgeStyle;rounded=0;orthogonalLoop=1;jettySize=auto;html=1;entryX=0;entryY=0.5;entryDx=0;entryDy=0;entryPerimeter=0;exitX=0.5;exitY=0;exitDx=0;exitDy=0;" edge="1" parent="1" source="JjmnFxGDmP4QZC_i7diW-20" target="DYd8IbBcMiyC2rXcUr8B-1">
          <mxGeometry relative="1" as="geometry" />
        </mxCell>
        <mxCell id="DYd8IbBcMiyC2rXcUr8B-4" style="edgeStyle=orthogonalEdgeStyle;rounded=0;orthogonalLoop=1;jettySize=auto;html=1;entryX=0.5;entryY=1;entryDx=0;entryDy=0;entryPerimeter=0;" edge="1" parent="1" source="JjmnFxGDmP4QZC_i7diW-33" target="DYd8IbBcMiyC2rXcUr8B-1">
          <mxGeometry relative="1" as="geometry" />
        </mxCell>
        <mxCell id="DYd8IbBcMiyC2rXcUr8B-8" style="edgeStyle=orthogonalEdgeStyle;rounded=0;orthogonalLoop=1;jettySize=auto;html=1;endArrow=none;endFill=0;startArrow=classic;startFill=1;exitX=1;exitY=0.5;exitDx=0;exitDy=0;" edge="1" parent="1" source="JjmnFxGDmP4QZC_i7diW-20">
          <mxGeometry relative="1" as="geometry">
            <mxPoint x="660" y="510" as="sourcePoint" />
            <mxPoint x="610" y="1040" as="targetPoint" />
            <Array as="points">
              <mxPoint x="850" y="500" />
              <mxPoint x="850" y="1040" />
            </Array>
          </mxGeometry>
        </mxCell>
        <mxCell id="DYd8IbBcMiyC2rXcUr8B-11" value="Produtos" style="swimlane;fontStyle=0;childLayout=stackLayout;horizontal=1;startSize=26;fillColor=none;horizontalStack=0;resizeParent=1;resizeParentMax=0;resizeLast=0;collapsible=1;marginBottom=0;whiteSpace=wrap;html=1;" vertex="1" parent="1">
          <mxGeometry x="922" y="40" width="190" height="104" as="geometry" />
        </mxCell>
        <mxCell id="DYd8IbBcMiyC2rXcUr8B-12" value="# idproduto: integer" style="text;strokeColor=none;fillColor=none;align=left;verticalAlign=top;spacingLeft=4;spacingRight=4;overflow=hidden;rotatable=0;points=[[0,0.5],[1,0.5]];portConstraint=eastwest;whiteSpace=wrap;html=1;" vertex="1" parent="DYd8IbBcMiyC2rXcUr8B-11">
          <mxGeometry y="26" width="190" height="26" as="geometry" />
        </mxCell>
        <mxCell id="DYd8IbBcMiyC2rXcUr8B-13" value="+ descricao: varchar(255)" style="text;strokeColor=none;fillColor=none;align=left;verticalAlign=top;spacingLeft=4;spacingRight=4;overflow=hidden;rotatable=0;points=[[0,0.5],[1,0.5]];portConstraint=eastwest;whiteSpace=wrap;html=1;" vertex="1" parent="DYd8IbBcMiyC2rXcUr8B-11">
          <mxGeometry y="52" width="190" height="26" as="geometry" />
        </mxCell>
        <mxCell id="DYd8IbBcMiyC2rXcUr8B-14" value="+ unidade: varchar(3)" style="text;strokeColor=none;fillColor=none;align=left;verticalAlign=top;spacingLeft=4;spacingRight=4;overflow=hidden;rotatable=0;points=[[0,0.5],[1,0.5]];portConstraint=eastwest;whiteSpace=wrap;html=1;" vertex="1" parent="DYd8IbBcMiyC2rXcUr8B-11">
          <mxGeometry y="78" width="190" height="26" as="geometry" />
        </mxCell>
        <mxCell id="DYd8IbBcMiyC2rXcUr8B-17" value="Estoques" style="swimlane;fontStyle=0;childLayout=stackLayout;horizontal=1;startSize=26;fillColor=none;horizontalStack=0;resizeParent=1;resizeParentMax=0;resizeLast=0;collapsible=1;marginBottom=0;whiteSpace=wrap;html=1;" vertex="1" parent="1">
          <mxGeometry x="922" y="180" width="190" height="182" as="geometry" />
        </mxCell>
        <mxCell id="DYd8IbBcMiyC2rXcUr8B-18" value="# idestoque: integer" style="text;strokeColor=none;fillColor=none;align=left;verticalAlign=top;spacingLeft=4;spacingRight=4;overflow=hidden;rotatable=0;points=[[0,0.5],[1,0.5]];portConstraint=eastwest;whiteSpace=wrap;html=1;" vertex="1" parent="DYd8IbBcMiyC2rXcUr8B-17">
          <mxGeometry y="26" width="190" height="26" as="geometry" />
        </mxCell>
        <mxCell id="DYd8IbBcMiyC2rXcUr8B-19" value="+ data: date" style="text;strokeColor=none;fillColor=none;align=left;verticalAlign=top;spacingLeft=4;spacingRight=4;overflow=hidden;rotatable=0;points=[[0,0.5],[1,0.5]];portConstraint=eastwest;whiteSpace=wrap;html=1;" vertex="1" parent="DYd8IbBcMiyC2rXcUr8B-17">
          <mxGeometry y="52" width="190" height="26" as="geometry" />
        </mxCell>
        <mxCell id="DYd8IbBcMiyC2rXcUr8B-24" value="+ movimento: char(1) [E/S]" style="text;strokeColor=none;fillColor=none;align=left;verticalAlign=top;spacingLeft=4;spacingRight=4;overflow=hidden;rotatable=0;points=[[0,0.5],[1,0.5]];portConstraint=eastwest;whiteSpace=wrap;html=1;" vertex="1" parent="DYd8IbBcMiyC2rXcUr8B-17">
          <mxGeometry y="78" width="190" height="26" as="geometry" />
        </mxCell>
        <mxCell id="DYd8IbBcMiyC2rXcUr8B-20" value="+ idproduto: integer" style="text;strokeColor=none;fillColor=none;align=left;verticalAlign=top;spacingLeft=4;spacingRight=4;overflow=hidden;rotatable=0;points=[[0,0.5],[1,0.5]];portConstraint=eastwest;whiteSpace=wrap;html=1;" vertex="1" parent="DYd8IbBcMiyC2rXcUr8B-17">
          <mxGeometry y="104" width="190" height="26" as="geometry" />
        </mxCell>
        <mxCell id="DYd8IbBcMiyC2rXcUr8B-21" value="+ quantidade: numerica(13,3)" style="text;strokeColor=none;fillColor=none;align=left;verticalAlign=top;spacingLeft=4;spacingRight=4;overflow=hidden;rotatable=0;points=[[0,0.5],[1,0.5]];portConstraint=eastwest;whiteSpace=wrap;html=1;" vertex="1" parent="DYd8IbBcMiyC2rXcUr8B-17">
          <mxGeometry y="130" width="190" height="26" as="geometry" />
        </mxCell>
        <mxCell id="DYd8IbBcMiyC2rXcUr8B-22" value="+ valor: numerica(12,2)" style="text;strokeColor=none;fillColor=none;align=left;verticalAlign=top;spacingLeft=4;spacingRight=4;overflow=hidden;rotatable=0;points=[[0,0.5],[1,0.5]];portConstraint=eastwest;whiteSpace=wrap;html=1;" vertex="1" parent="DYd8IbBcMiyC2rXcUr8B-17">
          <mxGeometry y="156" width="190" height="26" as="geometry" />
        </mxCell>
        <mxCell id="DYd8IbBcMiyC2rXcUr8B-25" value="Saldos" style="swimlane;fontStyle=0;childLayout=stackLayout;horizontal=1;startSize=26;fillColor=none;horizontalStack=0;resizeParent=1;resizeParentMax=0;resizeLast=0;collapsible=1;marginBottom=0;whiteSpace=wrap;html=1;" vertex="1" parent="1">
          <mxGeometry x="922" y="400" width="190" height="286" as="geometry" />
        </mxCell>
        <mxCell id="DYd8IbBcMiyC2rXcUr8B-26" value="# idproduto: integer" style="text;strokeColor=none;fillColor=none;align=left;verticalAlign=top;spacingLeft=4;spacingRight=4;overflow=hidden;rotatable=0;points=[[0,0.5],[1,0.5]];portConstraint=eastwest;whiteSpace=wrap;html=1;" vertex="1" parent="DYd8IbBcMiyC2rXcUr8B-25">
          <mxGeometry y="26" width="190" height="26" as="geometry" />
        </mxCell>
        <mxCell id="DYd8IbBcMiyC2rXcUr8B-27" value="# data: date" style="text;strokeColor=none;fillColor=none;align=left;verticalAlign=top;spacingLeft=4;spacingRight=4;overflow=hidden;rotatable=0;points=[[0,0.5],[1,0.5]];portConstraint=eastwest;whiteSpace=wrap;html=1;" vertex="1" parent="DYd8IbBcMiyC2rXcUr8B-25">
          <mxGeometry y="52" width="190" height="26" as="geometry" />
        </mxCell>
        <mxCell id="DYd8IbBcMiyC2rXcUr8B-30" value="+ q_anterior: numerica(13,3)" style="text;strokeColor=none;fillColor=none;align=left;verticalAlign=top;spacingLeft=4;spacingRight=4;overflow=hidden;rotatable=0;points=[[0,0.5],[1,0.5]];portConstraint=eastwest;whiteSpace=wrap;html=1;" vertex="1" parent="DYd8IbBcMiyC2rXcUr8B-25">
          <mxGeometry y="78" width="190" height="26" as="geometry" />
        </mxCell>
        <mxCell id="DYd8IbBcMiyC2rXcUr8B-31" value="+ v_anterior&lt;span style=&quot;background-color: initial;&quot;&gt;: numerica(12,2)&lt;/span&gt;" style="text;strokeColor=none;fillColor=none;align=left;verticalAlign=top;spacingLeft=4;spacingRight=4;overflow=hidden;rotatable=0;points=[[0,0.5],[1,0.5]];portConstraint=eastwest;whiteSpace=wrap;html=1;" vertex="1" parent="DYd8IbBcMiyC2rXcUr8B-25">
          <mxGeometry y="104" width="190" height="26" as="geometry" />
        </mxCell>
        <mxCell id="DYd8IbBcMiyC2rXcUr8B-32" value="+ q_entradas: numerica(13,3)" style="text;strokeColor=none;fillColor=none;align=left;verticalAlign=top;spacingLeft=4;spacingRight=4;overflow=hidden;rotatable=0;points=[[0,0.5],[1,0.5]];portConstraint=eastwest;whiteSpace=wrap;html=1;" vertex="1" parent="DYd8IbBcMiyC2rXcUr8B-25">
          <mxGeometry y="130" width="190" height="26" as="geometry" />
        </mxCell>
        <mxCell id="DYd8IbBcMiyC2rXcUr8B-33" value="+ v_entradas&lt;span style=&quot;background-color: initial;&quot;&gt;: numerica(12,2)&lt;/span&gt;" style="text;strokeColor=none;fillColor=none;align=left;verticalAlign=top;spacingLeft=4;spacingRight=4;overflow=hidden;rotatable=0;points=[[0,0.5],[1,0.5]];portConstraint=eastwest;whiteSpace=wrap;html=1;" vertex="1" parent="DYd8IbBcMiyC2rXcUr8B-25">
          <mxGeometry y="156" width="190" height="26" as="geometry" />
        </mxCell>
        <mxCell id="DYd8IbBcMiyC2rXcUr8B-34" value="+ q_saidas: numerica(13,3)" style="text;strokeColor=none;fillColor=none;align=left;verticalAlign=top;spacingLeft=4;spacingRight=4;overflow=hidden;rotatable=0;points=[[0,0.5],[1,0.5]];portConstraint=eastwest;whiteSpace=wrap;html=1;" vertex="1" parent="DYd8IbBcMiyC2rXcUr8B-25">
          <mxGeometry y="182" width="190" height="26" as="geometry" />
        </mxCell>
        <mxCell id="DYd8IbBcMiyC2rXcUr8B-35" value="+ v_saidas&lt;span style=&quot;background-color: initial;&quot;&gt;: numerica(12,2)&lt;/span&gt;" style="text;strokeColor=none;fillColor=none;align=left;verticalAlign=top;spacingLeft=4;spacingRight=4;overflow=hidden;rotatable=0;points=[[0,0.5],[1,0.5]];portConstraint=eastwest;whiteSpace=wrap;html=1;" vertex="1" parent="DYd8IbBcMiyC2rXcUr8B-25">
          <mxGeometry y="208" width="190" height="26" as="geometry" />
        </mxCell>
        <mxCell id="DYd8IbBcMiyC2rXcUr8B-36" value="+ q_atual: numerica(13,3)" style="text;strokeColor=none;fillColor=none;align=left;verticalAlign=top;spacingLeft=4;spacingRight=4;overflow=hidden;rotatable=0;points=[[0,0.5],[1,0.5]];portConstraint=eastwest;whiteSpace=wrap;html=1;" vertex="1" parent="DYd8IbBcMiyC2rXcUr8B-25">
          <mxGeometry y="234" width="190" height="26" as="geometry" />
        </mxCell>
        <mxCell id="DYd8IbBcMiyC2rXcUr8B-37" value="+ v_atual&lt;span style=&quot;background-color: initial;&quot;&gt;: numerica(12,2)&lt;/span&gt;" style="text;strokeColor=none;fillColor=none;align=left;verticalAlign=top;spacingLeft=4;spacingRight=4;overflow=hidden;rotatable=0;points=[[0,0.5],[1,0.5]];portConstraint=eastwest;whiteSpace=wrap;html=1;" vertex="1" parent="DYd8IbBcMiyC2rXcUr8B-25">
          <mxGeometry y="260" width="190" height="26" as="geometry" />
        </mxCell>
      </root>
    </mxGraphModel>
  </diagram>
</mxfile>
